<svg width="886" height="236" viewBox="0 0 886 236" fill="none" xmlns="http://www.w3.org/2000/svg">
<path d="M347.943 44.7818H367.672V109.268H390.988V44.7818H405.848L417.891 23.2865H382.917H347.943V44.7818Z" fill="black"/>
<path d="M683.819 23.2865L683.332 67.1727L683.894 109.268L709.338 125.253L705.311 73.4421C705.311 73.4421 723.111 90.7727 744.312 111.954C765.512 133.136 792.252 159.242 792.252 159.242L746.105 147.78L886 236L751.486 59.112L774.802 62.1831L681.538 0L728.17 52.366L740.538 72.9836L683.819 23.2865Z" fill="black"/>
<path fill-rule="evenodd" clip-rule="evenodd" d="M575.721 109.268H626.875C637.597 107.028 639.29 101.19 639.391 87.7723C640.091 75.8487 638.723 70.5207 628.63 64.1078C637.331 59.1228 639.277 53.4573 639.391 43.8861C637.777 31.9865 637.149 29.1082 625.939 24.1822C625.939 24.1822 616.972 23.2865 600.83 23.2865H575.721V109.268ZM615.178 48.3643C615.178 47.801 614.601 46.7647 613.897 46.0616C613.047 45.2117 610.634 44.7818 606.723 44.7818H600.83V51.9469H606.723C610.634 51.9469 613.047 51.517 613.897 50.667C614.601 49.9639 615.178 48.9277 615.178 48.3643ZM615.178 80.6072C615.178 80.0439 614.601 79.0076 613.897 78.3045C613.047 77.4546 610.634 77.0247 606.723 77.0247H600.83V84.1898H606.723C610.634 84.1898 613.047 83.7598 613.897 82.9099C614.601 82.2068 615.178 81.1706 615.178 80.6072Z" fill="black"/>
<path fill-rule="evenodd" clip-rule="evenodd" d="M312.073 109.268H337.182V23.2865H312.073V109.268ZM502.186 109.268H564.96V84.1898H527.296V23.2865H502.186V109.268ZM647.462 109.268H672.571V23.2865H647.462V109.268Z" fill="black"/>
<path fill-rule="evenodd" clip-rule="evenodd" d="M457.348 23.2865L410.717 109.268H440.451L466.316 87.7723V109.268H491.425V23.2865H457.348ZM465.419 57.3207L459.361 69.4324L465.867 65.2623L465.419 57.3207Z" fill="black"/>
<path d="M262.211 109.268C282.107 109.268 298.877 96.0063 304.002 77.9203C304.002 77.9203 303.804 70.3121 303.804 66.277H249.552L276.763 79.7116C273.132 83.569 267.956 85.981 262.211 85.981C251.225 85.981 242.319 77.1592 242.319 66.277C242.319 55.3948 251.225 46.5731 262.211 46.5731C267.677 46.5731 272.628 48.7568 276.224 52.2915L292.847 35.8254C284.997 28.0767 274.169 23.2865 262.211 23.2865C238.241 23.2865 218.81 42.534 218.81 66.277C218.81 90.02 238.241 109.268 262.211 109.268Z" fill="black"/>
<path d="M184.733 23.2865H209.842V109.268H184.733V23.2865Z" fill="black"/>
<path fill-rule="evenodd" clip-rule="evenodd" d="M111.198 62.1831L204.462 0L173.972 34.2393V127.94L0 236L134.514 59.112L111.198 62.1831ZM148.414 120.911V68.0683L93.2632 157.632L148.414 120.911Z" fill="black"/>
</svg>
