<svg viewBox="0 0 4371 191" fill="none" xmlns="http://www.w3.org/2000/svg">
<path class="arrow" d="M29.5 118.857V95.2857H59V71.7143H29.5V48.1429H0V1H29.5V24.5714H59V48.1429H88.5V71.7143H118V95.2857H88.5V118.857H59V142.429H29.5V166H0V118.857H29.5Z" fill="black"/>
<path class="cursor" d="M4252.5 13.6923V1H4265.17H4357.83V13.6923L4370.5 13.6923V153.308V166H4357.83H4265.17L4265.17 153.308H4252.5V13.6923Z" fill="black"/>
<path class="letter" d="M285.25 72H261.5V143.25H285.25V72ZM237.75 167V143.25H214V72H237.75V48.25H285.25V0.75H332.75V167H237.75Z" fill="black"/>
<path class="letter" d="M404 24.5H356.5V0.75H404V24.5ZM356.5 167V48.25H404V167H356.5Z" fill="black"/>
<path class="letter" d="M475.25 119.5H499V72H475.25V119.5ZM451.5 167H499V143.25H451.5V119.5H427.75V72H451.5V48.25H546.5V167H522.75V190.75H451.5V167Z" fill="black"/>
<path class="letter" d="M617.75 24.5H570.25V0.75H617.75V24.5ZM570.25 167V48.25H617.75V167H570.25Z" fill="black"/>
<path class="letter" d="M712.75 143.25V167H665.25V143.25H641.5V0.75H689V48.25H712.75V72H689V143.25H712.75Z" fill="black"/>
<path class="letter" d="M784 143.25H807.75V119.5H784V143.25ZM855.25 72V167H760.25V143.25H736.5V119.5H760.25V95.75H807.75V72H760.25V48.25H831.5V72H855.25Z" fill="black"/>
<path class="letter" d="M879 0.75H926.5V167H879V0.75Z" fill="black"/>
<path class="letter" d="M1021.5 72H997.75V143.25H1021.5V72ZM1045.25 48.25V72H1069V143.25H1045.25V167H950.25V0.75H997.75V48.25H1045.25Z" fill="black"/>
<path class="letter" d="M1140.25 24.5H1092.75V0.75H1140.25V24.5ZM1092.75 167V48.25H1140.25V167H1092.75Z" fill="black"/>
<path class="letter" d="M1282.75 72V167H1235.25V72H1211.5V167H1164V48.25H1259V72H1282.75Z" fill="black"/>
<path class="letter" d="M1306.5 48.25H1354V95.75H1306.5V48.25ZM1306.5 119.5H1354V167H1306.5V119.5Z" fill="black"/>
<path class="letter" d="M1520.25 143.25V167H1472.75V143.25H1449V0.75H1496.5V48.25H1520.25V72H1496.5V143.25H1520.25Z" fill="black"/>
<path class="letter" d="M1615.25 167V72H1591.5V167H1544V0.75H1591.5V48.25H1639V72H1662.75V167H1615.25Z" fill="black"/>
<path class="letter" d="M1734 95.75H1757.75V72H1734V95.75ZM1805.25 72V119.5H1734V143.25H1805.25V167H1710.25V143.25H1686.5V72H1710.25V48.25H1781.5V72H1805.25Z" fill="black"/>
<path class="letter" d="M1947.75 143.25H1971.5V119.5H1947.75V143.25ZM2019 72V167H1924V143.25H1900.25V119.5H1924V95.75H1971.5V72H1924V48.25H1995.25V72H2019Z" fill="black"/>
<path class="letter" d="M2161.5 72V167H2114V72H2090.25V167H2042.75V48.25H2137.75V72H2161.5Z" fill="black"/>
<path class="letter" d="M2232.75 143.25H2256.5V119.5H2232.75V143.25ZM2304 72V167H2209V143.25H2185.25V119.5H2209V95.75H2256.5V72H2209V48.25H2280.25V72H2304Z" fill="black"/>
<path class="letter" d="M2327.75 0.75H2375.25V167H2327.75V0.75Z" fill="black"/>
<path class="letter" d="M2470.25 143.25V72H2446.5V143.25H2470.25ZM2422.75 167V143.25H2399V72H2422.75V48.25H2494V72H2517.75V143.25H2494V167H2422.75Z" fill="black"/>
<path class="letter" d="M2589 119.5H2612.75V72H2589V119.5ZM2565.25 167H2612.75V143.25H2565.25V119.5H2541.5V72H2565.25V48.25H2660.25V167H2636.5V190.75H2565.25V167Z" fill="black"/>
<path class="letter" d="M2707.75 143.25H2684V48.25H2731.5V143.25H2755.25V48.25H2802.75V167H2707.75V143.25Z" fill="black"/>
<path class="letter" d="M2874 95.75H2897.75V72H2874V95.75ZM2945.25 72V119.5H2874V143.25H2945.25V167H2850.25V143.25H2826.5V72H2850.25V48.25H2921.5V72H2945.25Z" fill="black"/>
<path class="letter" d="M3040.25 143.25V72H3064V48.25H3135.25V72H3087.75V143.25H3135.25V167H3064V143.25H3040.25Z" fill="black"/>
<path class="letter" d="M3206.5 143.25H3230.25V119.5H3206.5V143.25ZM3277.75 72V167H3182.75V143.25H3159V119.5H3182.75V95.75H3230.25V72H3182.75V48.25H3254V72H3277.75Z" fill="black"/>
<path class="letter" d="M3372.75 143.25V167H3325.25V143.25H3301.5V0.75H3349V48.25H3372.75V72H3349V143.25H3372.75Z" fill="black"/>
<path class="letter" d="M3444 143.25H3467.75V119.5H3444V143.25ZM3515.25 72V167H3420.25V143.25H3396.5V119.5H3420.25V95.75H3467.75V72H3420.25V48.25H3491.5V72H3515.25Z" fill="black"/>
<path class="letter" d="M3539 0.75H3586.5V167H3539V0.75Z" fill="black"/>
<path class="letter" d="M3681.5 143.25V72H3657.75V143.25H3681.5ZM3634 167V143.25H3610.25V72H3634V48.25H3705.25V72H3729V143.25H3705.25V167H3634Z" fill="black"/>
<path class="letter" d="M3800.25 119.5H3824V72H3800.25V119.5ZM3776.5 167H3824V143.25H3776.5V119.5H3752.75V72H3776.5V48.25H3871.5V167H3847.75V190.75H3776.5V167Z" fill="black"/>
<path class="letter" d="M3919 143.25H3895.25V48.25H3942.75V143.25H3966.5V48.25H4014V167H3919V143.25Z" fill="black"/>
<path class="letter" d="M4085.25 95.75H4109V72H4085.25V95.75ZM4156.5 72V119.5H4085.25V143.25H4156.5V167H4061.5V143.25H4037.75V72H4061.5V48.25H4132.75V72H4156.5Z" fill="black"/>
</svg>
